<svg xmlns="http://www.w3.org/2000/svg" viewBox="0 0 400 400" width="100%" height="100%">
  <defs>
    <linearGradient id="bgHassan" x1="0%" y1="0%" x2="100%" y2="100%">
      <stop offset="0%" stop-color="#1e3a8a" />
      <stop offset="100%" stop-color="#0f172a" />
    </linearGradient>
    <linearGradient id="suitGrad" x1="0%" y1="0%" x2="100%" y2="100%">
      <stop offset="0%" stop-color="#1e293b" />
      <stop offset="100%" stop-color="#0f172a" />
    </linearGradient>
  </defs>
  <rect width="400" height="400" rx="20" fill="url(#bgHassan)" />
  <circle cx="200" cy="140" r="65" fill="#f8fafc" opacity="0.9" />
  <!-- Hair & Features -->
  <path d="M140 130 C140 85 165 70 200 70 C235 70 260 85 260 130 C260 100 240 85 200 85 C160 85 140 100 140 130 Z" fill="#1e293b" />
  <!-- Shoulders & Suit -->
  <path d="M90 360 C90 260 140 230 200 230 C260 230 310 260 310 360 Z" fill="url(#suitGrad)" />
  <!-- Tie & Shirt -->
  <polygon points="180,230 220,230 205,270 195,270" fill="#ffffff" />
  <polygon points="195,270 205,270 208,350 200,360 192,350" fill="#1d4ed8" />
  <!-- Badge -->
  <rect x="50" y="320" width="300" height="60" rx="12" fill="rgba(15,23,42,0.85)" stroke="rgba(255,255,255,0.15)" />
  <text x="200" y="345" font-family="'Plus Jakarta Sans', sans-serif" font-size="16" font-weight="700" fill="#ffffff" text-anchor="middle">Hassan Zeb (ITP)</text>
  <text x="200" y="365" font-family="'Inter', sans-serif" font-size="12" font-weight="600" fill="#84cc16" text-anchor="middle">CEO &amp; Principal Tax Consultant</text>
</svg>
