<svg xmlns="http://www.w3.org/2000/svg" viewBox="0 0 64 64" fill="none">
  <defs>
    <radialGradient id="fav-bg" cx="50%" cy="50%" r="50%">
      <stop offset="0%" stop-color="#1e293b" />
      <stop offset="100%" stop-color="#020617" />
    </radialGradient>
    <linearGradient id="fb-b" x1="0%" y1="0%" x2="0%" y2="100%">
      <stop offset="0%" stop-color="#047857" /><stop offset="100%" stop-color="#065f46" />
    </linearGradient>
    <linearGradient id="fb-s" x1="0%" y1="0%" x2="0%" y2="100%">
      <stop offset="0%" stop-color="#10b981" /><stop offset="100%" stop-color="#059669" />
    </linearGradient>
    <linearGradient id="fb-t" x1="0%" y1="0%" x2="0%" y2="100%">
      <stop offset="0%" stop-color="#4ade80" /><stop offset="100%" stop-color="#16a34a" />
    </linearGradient>
    <linearGradient id="fb-c" x1="0%" y1="0%" x2="0%" y2="100%">
      <stop offset="0%" stop-color="#84cc16" /><stop offset="100%" stop-color="#65a30d" />
    </linearGradient>
  </defs>

  <rect width="64" height="64" rx="18" fill="url(#fav-bg)" stroke="#334155" stroke-width="2" />
  
  <g transform="translate(9, 6) scale(1.05)">
    <polygon points="12,34 17,34 19,22 14,22" fill="url(#fb-b)" />
    <text x="15.2" y="30" font-family="system-ui, sans-serif" font-size="5" font-weight="900" fill="#ffffff" text-anchor="middle">B</text>

    <polygon points="18,31 23,31 25,17 20,17" fill="url(#fb-s)" />
    <text x="21.7" y="26.5" font-family="system-ui, sans-serif" font-size="5.2" font-weight="900" fill="#ffffff" text-anchor="middle">S</text>

    <polygon points="24,28 29,28 31,12 26,12" fill="url(#fb-t)" />
    <text x="27.7" y="22.5" font-family="system-ui, sans-serif" font-size="5.2" font-weight="900" fill="#ffffff" text-anchor="middle">T</text>

    <polygon points="30,25 35,25 37,7 32,7" fill="url(#fb-c)" />
    <text x="33.7" y="18.5" font-family="system-ui, sans-serif" font-size="5.2" font-weight="900" fill="#ffffff" text-anchor="middle">C</text>

    <path d="M 9 29 L 16 41 C 17 43, 19 43, 22 39 L 36 22 C 38 20, 37 19, 35 20 L 21 34 C 19 36, 18 36, 17 33 L 11 27 Z" fill="#ffffff" />
  </g>
</svg>
